<svg xmlns="http://www.w3.org/2000/svg" width="150" height="150" viewBox="0 0 150 150" fill="none">
  <path fill-rule="evenodd" clip-rule="evenodd" d="M128.033 128.033C113.968 142.098 94.8912 150 75 150L75 135C108.137 135 135 108.137 135 75C135 41.8629 108.137 15 75 15L75 0C94.8913 3.05029e-06 113.968 7.90177 128.033 21.967C142.098 36.0322 150 55.1088 150 75C150 94.8912 142.098 113.968 128.033 128.033Z" fill="#3D8BFD"/>
  <path fill-rule="evenodd" clip-rule="evenodd" d="M46.2987 5.70903C55.3982 1.93993 65.1509 0 75 0V15C41.8629 15 15 41.8629 15 75C15 108.137 41.8629 135 75 135L75 150C65.1509 150 55.3982 148.06 46.2987 144.291C37.1993 140.522 28.9314 134.997 21.967 128.033C15.0026 121.069 9.47814 112.801 5.70904 103.701C1.93993 94.6018 0 84.8491 0 75C0 65.1509 1.93993 55.3982 5.70903 46.2987C9.47814 37.1993 15.0026 28.9314 21.967 21.967C28.9314 15.0026 37.1993 9.47814 46.2987 5.70903Z" fill="white"/>
</svg>